# xmcd
# 
# Track frame offsets:
#     150
#     44132
#     103625
#     137312
#     184440
#     224005
# 
# Disc length: 3720
# 
# Revision: 1
# Processed by: cddbd v1.5.2PL0 Copyright (c) Steve Scherf et al.
# Submitted via: BonkEnc v1.0.8
# 
DISCID=5d0e8606
DTITLE=David Kikoski - The 5
DYEAR=2001
DGENRE=Contemporary Jazz
TTITLE0=Winnie's Garden
TTITLE1=Song in Five
TTITLE2=K's Blues
TTITLE3=Little Angel
TTITLE4=Train of Thought
TTITLE5=Chant
EXTD=YEAR: 2002
EXTT0=
EXTT1=
EXTT2=
EXTT3=
EXTT4=
EXTT5=
PLAYORDER=
